<svg xmlns="http://www.w3.org/2000/svg" width="15.543" height="20.68" viewBox="0 0 15.543 20.68">
  <path id="Path_36100" data-name="Path 36100" d="M11.021,1.582a6.439,6.439,0,1,0,6.439,6.439A6.439,6.439,0,0,0,11.021,1.582ZM3.25,8.021a7.771,7.771,0,1,1,13.694,5.032l1.418,5.958A1.554,1.554,0,0,1,16.227,20.8l-5.116-2.238a.222.222,0,0,0-.179,0L5.816,20.8a1.555,1.555,0,0,1-2.135-1.784L5.1,13.054A7.743,7.743,0,0,1,3.25,8.021Zm2.964,6.106L4.977,19.321a.222.222,0,0,0,.306.255L10.4,17.337a1.554,1.554,0,0,1,1.246,0l5.117,2.238a.222.222,0,0,0,.306-.255l-1.237-5.193a7.772,7.772,0,0,1-9.615,0Zm8.831-8.353a.666.666,0,0,1,0,.941l-3.553,3.553a.666.666,0,0,1-.941,0L8.774,8.492a.666.666,0,0,1,.941-.941l1.306,1.306L14.1,5.774a.666.666,0,0,1,.941,0Z" transform="translate(-3.25 -0.25)" fill="#f0b76e" fill-rule="evenodd"/>
</svg>
