<svg xmlns="http://www.w3.org/2000/svg" width="15.302" height="15.302" viewBox="0 0 15.302 15.302">
  <path id="Path_57" data-name="Path 57" d="M8.835,2.313A6.554,6.554,0,0,0,3.248,12.29l.144.234L2.229,15.239a.177.177,0,0,0,.232.232l2.715-1.163.234.144A6.553,6.553,0,1,0,8.835,2.313ZM1.22,8.865A7.612,7.612,0,1,1,5.094,15.5l-2.214.949A1.24,1.24,0,0,1,1.252,14.82L2.2,12.607A7.583,7.583,0,0,1,1.22,8.865Zm4.25-1.417A.531.531,0,0,1,6,6.917H8.127a.531.531,0,0,1,0,1.063H6A.531.531,0,0,1,5.471,7.448Zm0,2.834A.531.531,0,0,1,6,9.751h5.667a.531.531,0,0,1,0,1.063H6a.531.531,0,0,1-.531-.531Z" transform="translate(-1.148 -1.25)" fill="#484848" fill-rule="evenodd"/>
</svg>
